# xmcd
#
# Track frame offsets:
#	150
#	22158
#	40598
#	73852
#	93886
#	128429
#	180522
#	212027
#
# Disc length: 3350 seconds
#
# Revision: 1
# Processed by: cddbd v1.5PL3 Copyright (c) Steve Scherf et al.
# Submitted via: audiograbber 1.82.01
#
DISCID=640d1408
DTITLE=Eric Clapton - 2001-06-09 - Air Canada Centre,Toronto - Disc 2
DYEAR=1900
DGENRE=
TTITLE0=Eric Clapton - Travelin' Light
TTITLE1=Eric Clapton - Hoochie Coochie Man
TTITLE2=Eric Clapton - Five Long Years
TTITLE3=Eric Clapton - Cocaine
TTITLE4=Eric Clapton - Wonderful Tonight
TTITLE5=Eric Clapton - Layla
TTITLE6=Eric Clapton - Sunshine of Your Love
TTITLE7=Eric Clapton - Somewhere Over the Rainbow
EXTD=
EXTT0=
EXTT1=
EXTT2=
EXTT3=
EXTT4=
EXTT5=
EXTT6=
EXTT7=
PLAYORDER=
